<?xml version="1.0" encoding="UTF-8"?>
<svg version="1.1" xmlns="http://www.w3.org/2000/svg" width="64" height="64">
<path d="M0 0 C3.26558535 2.87958236 5.59795734 6.39693601 8 10 C7.72793135 11.6777567 7.38499891 13.34450469 7 15 C6.96227087 16.9996441 6.95350094 19.00054061 7 21 C6.34 20.01 5.68 19.02 5 18 C4.34 20.97 3.68 23.94 3 27 C2.34 27 1.68 27 1 27 C0.67 26.34 0.34 25.68 0 25 C-0.66 25.99 -1.32 26.98 -2 28 C-2.66 28 -3.32 28 -4 28 C-4 28.66 -4 29.32 -4 30 C-5.9375 29.625 -5.9375 29.625 -8 29 C-8.33 28.34 -8.66 27.68 -9 27 C-9.99 27.33 -10.98 27.66 -12 28 C-12 26.02 -12 24.04 -12 22 C-11.34 22 -10.68 22 -10 22 C-10 21.01 -10 20.02 -10 19 C-11.32 19 -12.64 19 -14 19 C-14 17.68 -14 16.36 -14 15 C-14.66 15.99 -15.32 16.98 -16 18 C-16.34696353 11.17638388 -15.63496283 7.96433318 -11 2.75 C-7.62642021 -0.20188231 -4.34041702 -0.68084973 0 0 Z M4 14 C5 16 5 16 5 16 Z M-2 20 C-1 22 -1 22 -1 22 Z " fill="#78D4FC" transform="translate(33,20)"/>
<path d="M0 0 C0.103125 0.639375 0.20625 1.27875 0.3125 1.9375 C0.6528125 2.9584375 0.6528125 2.9584375 1 4 C1.99 4.33 2.98 4.66 4 5 C3.52797514 9.24822374 1.03344482 11.19989709 -2 14 C-1.34 14.33 -0.68 14.66 0 15 C0 18.11257569 -0.17361624 20.10765685 -1 23 C-1.66 23 -2.32 23 -3 23 C-3 23.66 -3 24.32 -3 25 C-4.9375 24.625 -4.9375 24.625 -7 24 C-7.33 23.34 -7.66 22.68 -8 22 C-8.99 22.33 -9.98 22.66 -11 23 C-11 21.02 -11 19.04 -11 17 C-10.34 17 -9.68 17 -9 17 C-9.09539063 16.41992188 -9.19078125 15.83984375 -9.2890625 15.2421875 C-9.98268826 10.3545455 -10.4200678 6.51012636 -8 2 C-5.08332445 0.35469584 -3.35279018 0 0 0 Z " fill="#69A2BA" transform="translate(32,25)"/>
<path d="M0 0 C0.33 0.99 0.66 1.98 1 3 C1.598125 2.79375 2.19625 2.5875 2.8125 2.375 C5 2 5 2 8 4 C8 7.11257569 7.82638376 9.10765685 7 12 C6.34 12 5.68 12 5 12 C5 12.66 5 13.32 5 14 C3.0625 13.625 3.0625 13.625 1 13 C0.67 12.34 0.34 11.68 0 11 C-0.99 11.33 -1.98 11.66 -3 12 C-3 10.02 -3 8.04 -3 6 C-2.34 6 -1.68 6 -1 6 C-0.67 4.02 -0.34 2.04 0 0 Z " fill="#75A7BC" transform="translate(24,36)"/>
<path d="M0 0 C0.103125 0.639375 0.20625 1.27875 0.3125 1.9375 C0.539375 2.618125 0.76625 3.29875 1 4 C1.99 4.33 2.98 4.66 4 5 C3.52697634 9.25721298 1.18981069 11.32946082 -2 14 C-3.32 14 -4.64 14 -6 14 C-6 12.02 -6 10.04 -6 8 C-5.34 8 -4.68 8 -4 8 C-3.34 7.67 -2.68 7.34 -2 7 C-1.26924352 4.6859378 -0.59861742 2.35171131 0 0 Z " fill="#629CB4" transform="translate(32,25)"/>
<path d="M0 0 C2.33061852 3.49592778 2.70295038 5.84130536 3 10 C2.01 11.485 2.01 11.485 1 13 C0.67 12.34 0.34 11.68 0 11 C-0.99 11.33 -1.98 11.66 -3 12 C-3 10.02 -3 8.04 -3 6 C-2.34 6 -1.68 6 -1 6 C-0.67 4.02 -0.34 2.04 0 0 Z " fill="#79D5FD" transform="translate(24,36)"/>
<path d="M0 0 C0.66 0.33 1.32 0.66 2 1 C2 2.32 2 3.64 2 5 C2.99 5.33 3.98 5.66 5 6 C4.67 7.98 4.34 9.96 4 12 C3.34 12 2.68 12 2 12 C1.67 11.34 1.34 10.68 1 10 C0.01 9.34 -0.98 8.68 -2 8 C-1.34 6.68 -0.68 5.36 0 4 C-0.66 4 -1.32 4 -2 4 C-1.34 2.68 -0.68 1.36 0 0 Z " fill="#7BCEF1" transform="translate(32,35)"/>
<path d="M0 0 C0.33 0 0.66 0 1 0 C1 2.97 1 5.94 1 9 C0.01 8.67 -0.98 8.34 -2 8 C-2.125 5.125 -2.125 5.125 -2 2 C-1.34 1.34 -0.68 0.68 0 0 Z " fill="#A8E5FF" transform="translate(36,32)"/>
<path d="M0 0 C2 2 2 2 2.125 5.625 C2.08375 6.73875 2.0425 7.8525 2 9 C0.68 9 -0.64 9 -2 9 C-1.34 6.03 -0.68 3.06 0 0 Z " fill="#79B4CD" transform="translate(24,30)"/>
<path d="M0 0 C1.485 0.99 1.485 0.99 3 2 C2.01 2 1.02 2 0 2 C0 1.34 0 0.68 0 0 Z " fill="#79D7FF" transform="translate(33,47)"/>
</svg>
