<?xml version="1.0" encoding="UTF-8"?>
<!DOCTYPE svg PUBLIC "-//W3C//DTD SVG 1.1//EN" "http://www.w3.org/Graphics/SVG/1.1/DTD/svg11.dtd">
<svg xmlns="http://www.w3.org/2000/svg" version="1.1" width="800px" height="600px" style="shape-rendering:geometricPrecision; text-rendering:geometricPrecision; image-rendering:optimizeQuality; fill-rule:evenodd; clip-rule:evenodd" xmlns:xlink="http://www.w3.org/1999/xlink">
<g><path style="opacity:1" fill="#00b2ea" d="M 432.5,101.5 C 433.833,102.167 433.833,102.167 432.5,101.5 Z"/></g>
<g><path style="opacity:1" fill="#00b2ea" d="M 432.5,103.5 C 433.833,104.167 433.833,104.167 432.5,103.5 Z"/></g>
<g><path style="opacity:1" fill="#00b2ea" d="M 432.5,105.5 C 433.833,106.167 433.833,106.167 432.5,105.5 Z"/></g>
<g><path style="opacity:1" fill="#00b2ea" d="M 432.5,107.5 C 433.833,108.167 433.833,108.167 432.5,107.5 Z"/></g>
<g><path style="opacity:1" fill="#00b2ea" d="M 432.5,109.5 C 433.833,110.167 433.833,110.167 432.5,109.5 Z"/></g>
<g><path style="opacity:1" fill="#00b2ea" d="M 432.5,111.5 C 433.833,112.167 433.833,112.167 432.5,111.5 Z"/></g>
<g><path style="opacity:1" fill="#00b2ea" d="M 432.5,113.5 C 433.833,114.167 433.833,114.167 432.5,113.5 Z"/></g>
<g><path style="opacity:1" fill="#00b2ea" d="M 432.5,115.5 C 433.833,116.167 433.833,116.167 432.5,115.5 Z"/></g>
<g><path style="opacity:1" fill="#00b2ea" d="M 432.5,117.5 C 433.833,118.167 433.833,118.167 432.5,117.5 Z"/></g>
<g><path style="opacity:1" fill="#00b2ea" d="M 432.5,119.5 C 433.833,120.167 433.833,120.167 432.5,119.5 Z"/></g>
<g><path style="opacity:1" fill="#00b2ea" d="M 432.5,121.5 C 433.833,122.167 433.833,122.167 432.5,121.5 Z"/></g>
<g><path style="opacity:1" fill="#00b2ea" d="M 433.5,124.5 C 434.833,125.167 434.833,125.167 433.5,124.5 Z"/></g>
<g><path style="opacity:1" fill="#00b2ea" d="M 388.5,125.5 C 389.833,126.167 389.833,126.167 388.5,125.5 Z"/></g>
<g><path style="opacity:1" fill="#00b2ea" d="M 433.5,126.5 C 434.833,127.167 434.833,127.167 433.5,126.5 Z"/></g>
<g><path style="opacity:1" fill="#00b2ea" d="M 389.5,128.5 C 390.833,129.167 390.833,129.167 389.5,128.5 Z"/></g>
<g><path style="opacity:1" fill="#00b2ea" d="M 434.5,129.5 C 435.833,130.167 435.833,130.167 434.5,129.5 Z"/></g>
<g><path style="opacity:1" fill="#00b2ea" d="M 389.5,130.5 C 390.833,131.167 390.833,131.167 389.5,130.5 Z"/></g>
<g><path style="opacity:1" fill="#00b2ea" d="M 434.5,131.5 C 435.833,132.167 435.833,132.167 434.5,131.5 Z"/></g>
<g><path style="opacity:1" fill="#00b2ea" d="M 389.5,132.5 C 390.833,133.167 390.833,133.167 389.5,132.5 Z"/></g>
<g><path style="opacity:1" fill="#00b2ea" d="M 434.5,133.5 C 435.833,134.167 435.833,134.167 434.5,133.5 Z"/></g>
<g><path style="opacity:1" fill="#00b2ea" d="M 390.5,135.5 C 391.833,136.167 391.833,136.167 390.5,135.5 Z"/></g>
<g><path style="opacity:1" fill="#00b2ea" d="M 390.5,137.5 C 391.833,138.167 391.833,138.167 390.5,137.5 Z"/></g>
<g><path style="opacity:1" fill="#00b2ea" d="M 436.5,137.5 C 437.833,138.167 437.833,138.167 436.5,137.5 Z"/></g>
<g><path style="opacity:1" fill="#00b2ea" d="M 390.5,139.5 C 391.833,140.167 391.833,140.167 390.5,139.5 Z"/></g>
<g><path style="opacity:1" fill="#00b2ea" d="M 437.5,140.5 C 438.833,141.167 438.833,141.167 437.5,140.5 Z"/></g>
<g><path style="opacity:1" fill="#00b2ea" d="M 390.5,141.5 C 391.833,142.167 391.833,142.167 390.5,141.5 Z"/></g>
<g><path style="opacity:1" fill="#00b2ea" d="M 390.5,143.5 C 391.833,144.167 391.833,144.167 390.5,143.5 Z"/></g>
<g><path style="opacity:1" fill="#00b2ea" d="M 439.5,144.5 C 440.833,145.167 440.833,145.167 439.5,144.5 Z"/></g>
<g><path style="opacity:1" fill="#00b2ea" d="M 390.5,145.5 C 391.833,146.167 391.833,146.167 390.5,145.5 Z"/></g>
<g><path style="opacity:1" fill="#00b2ea" d="M 390.5,147.5 C 391.833,148.167 391.833,148.167 390.5,147.5 Z"/></g>
<g><path style="opacity:1" fill="#00b2ea" d="M 441.5,148.5 C 442.833,149.167 442.833,149.167 441.5,148.5 Z"/></g>
<g><path style="opacity:1" fill="#00b2ea" d="M 390.5,149.5 C 391.833,150.167 391.833,150.167 390.5,149.5 Z"/></g>
<g><path style="opacity:1" fill="#00b2ea" d="M 391.5,152.5 C 392.833,153.167 392.833,153.167 391.5,152.5 Z"/></g>
<g><path style="opacity:1" fill="#00b2ea" d="M 443.5,152.5 C 444.833,153.167 444.833,153.167 443.5,152.5 Z"/></g>
<g><path style="opacity:1" fill="#00b2ea" d="M 443.5,154.5 C 444.833,155.167 444.833,155.167 443.5,154.5 Z"/></g>
<g><path style="opacity:1" fill="#00b2ea" d="M 392.5,155.5 C 393.833,156.167 393.833,156.167 392.5,155.5 Z"/></g>
<g><path style="opacity:1" fill="#00b2ea" d="M 392.5,157.5 C 393.833,158.167 393.833,158.167 392.5,157.5 Z"/></g>
<g><path style="opacity:1" fill="#00b2ea" d="M 444.5,157.5 C 445.833,158.167 445.833,158.167 444.5,157.5 Z"/></g>
<g><path style="opacity:0.004" fill="#abd3e1" d="M 422.5,157.5 C 425.267,158.432 427.933,159.599 430.5,161C 430,161.5 429.5,162 429,162.5C 425,162.5 421,162.5 417,162.5C 415,161.5 415,160.5 417,159.5C 418.333,159.5 419.667,159.5 421,159.5C 421.717,158.956 422.217,158.289 422.5,157.5 Z"/></g>
<g><path style="opacity:1" fill="#00b2ea" d="M 392.5,159.5 C 393.833,160.167 393.833,160.167 392.5,159.5 Z"/></g>
<g><path style="opacity:1" fill="#00b2ea" d="M 445.5,160.5 C 446.833,161.167 446.833,161.167 445.5,160.5 Z"/></g>
<g><path style="opacity:1" fill="#00b2ea" d="M 446.5,163.5 C 447.833,164.167 447.833,164.167 446.5,163.5 Z"/></g>
<g><path style="opacity:1" fill="#00b2ea" d="M 446.5,165.5 C 447.833,166.167 447.833,166.167 446.5,165.5 Z"/></g>
<g><path style="opacity:1" fill="#00b2ea" d="M 361.5,166.5 C 362.833,167.167 362.833,167.167 361.5,166.5 Z"/></g>
<g><path style="opacity:1" fill="#00b2ea" d="M 446.5,167.5 C 447.833,168.167 447.833,168.167 446.5,167.5 Z"/></g>
<g><path style="opacity:1" fill="#00b2ea" d="M 361.5,168.5 C 362.833,169.167 362.833,169.167 361.5,168.5 Z"/></g>
<g><path style="opacity:1" fill="#00b2ea" d="M 446.5,169.5 C 447.833,170.167 447.833,170.167 446.5,169.5 Z"/></g>
<g><path style="opacity:1" fill="#00b2ea" d="M 362.5,171.5 C 363.833,172.167 363.833,172.167 362.5,171.5 Z"/></g>
<g><path style="opacity:1" fill="#00b2ea" d="M 446.5,171.5 C 447.833,172.167 447.833,172.167 446.5,171.5 Z"/></g>
<g><path style="opacity:1" fill="#00b2ea" d="M 363.5,174.5 C 364.833,175.167 364.833,175.167 363.5,174.5 Z"/></g>
<g><path style="opacity:1" fill="#00b2ea" d="M 458.5,177.5 C 459.833,178.167 459.833,178.167 458.5,177.5 Z"/></g>
<g><path style="opacity:1" fill="#00b2ea" d="M 365.5,178.5 C 366.833,179.167 366.833,179.167 365.5,178.5 Z"/></g>
<g><path style="opacity:1" fill="#00b2ea" d="M 458.5,179.5 C 459.833,180.167 459.833,180.167 458.5,179.5 Z"/></g>
<g><path style="opacity:1" fill="#00b2ea" d="M 496.5,179.5 C 497.833,180.167 497.833,180.167 496.5,179.5 Z"/></g>
<g><path style="opacity:1" fill="#00b2ea" d="M 366.5,181.5 C 367.833,182.167 367.833,182.167 366.5,181.5 Z"/></g>
<g><path style="opacity:1" fill="#00b2ea" d="M 496.5,181.5 C 497.833,182.167 497.833,182.167 496.5,181.5 Z"/></g>
<g><path style="opacity:1" fill="#00b2ea" d="M 459.5,182.5 C 460.833,183.167 460.833,183.167 459.5,182.5 Z"/></g>
<g><path style="opacity:1" fill="#00b2ea" d="M 496.5,183.5 C 497.833,184.167 497.833,184.167 496.5,183.5 Z"/></g>
<g><path style="opacity:1" fill="#00b2ea" d="M 459.5,184.5 C 460.833,185.167 460.833,185.167 459.5,184.5 Z"/></g>
<g><path style="opacity:1" fill="#00b2ea" d="M 496.5,184.5 C 495.833,185.167 495.833,185.167 496.5,184.5 Z"/></g>
<g><path style="opacity:1" fill="#00b2ea" d="M 495.5,186.5 C 496.833,187.167 496.833,187.167 495.5,186.5 Z"/></g>
<g><path style="opacity:1" fill="#00b2ea" d="M 461.5,188.5 C 462.833,189.167 462.833,189.167 461.5,188.5 Z"/></g>
<g><path style="opacity:1" fill="#00b2ea" d="M 495.5,188.5 C 496.833,189.167 496.833,189.167 495.5,188.5 Z"/></g>
<g><path style="opacity:1" fill="#00b2ea" d="M 461.5,190.5 C 462.833,191.167 462.833,191.167 461.5,190.5 Z"/></g>
<g><path style="opacity:1" fill="#00b2ea" d="M 495.5,190.5 C 496.833,191.167 496.833,191.167 495.5,190.5 Z"/></g>
<g><path style="opacity:1" fill="#00b2ea" d="M 495.5,191.5 C 494.833,192.167 494.833,192.167 495.5,191.5 Z"/></g>
<g><path style="opacity:1" fill="#00b2ea" d="M 461.5,192.5 C 462.833,193.167 462.833,193.167 461.5,192.5 Z"/></g>
<g><path style="opacity:1" fill="#00b2ea" d="M 494.5,193.5 C 495.833,194.167 495.833,194.167 494.5,193.5 Z"/></g>
<g><path style="opacity:1" fill="#00b2ea" d="M 461.5,194.5 C 462.833,195.167 462.833,195.167 461.5,194.5 Z"/></g>
<g><path style="opacity:1" fill="#73b9ce" d="M 494.5,195.5 C 495.833,196.167 495.833,196.167 494.5,195.5 Z"/></g>
<g><path style="opacity:1" fill="#00b2ea" d="M 461.5,196.5 C 462.833,197.167 462.833,197.167 461.5,196.5 Z"/></g>
<g><path style="opacity:1" fill="#00b2ea" d="M 461.5,198.5 C 462.833,199.167 462.833,199.167 461.5,198.5 Z"/></g>
<g><path style="opacity:1" fill="#73b9ce" d="M 495.5,198.5 C 496.833,199.167 496.833,199.167 495.5,198.5 Z"/></g>
<g><path style="opacity:1" fill="#73b9ce" d="M 495.5,200.5 C 496.833,201.167 496.833,201.167 495.5,200.5 Z"/></g>
<g><path style="opacity:1" fill="#73b9ce" d="M 495.5,201.5 C 494.833,202.167 494.833,202.167 495.5,201.5 Z"/></g>
<g><path style="opacity:1" fill="#73b9ce" d="M 494.5,202.5 C 493.833,203.167 493.833,203.167 494.5,202.5 Z"/></g>
<g><path style="opacity:1" fill="#73b9ce" d="M 493.5,204.5 C 494.833,205.167 494.833,205.167 493.5,204.5 Z"/></g>
<g><path style="opacity:1" fill="#73b9ce" d="M 493.5,205.5 C 492.833,206.167 492.833,206.167 493.5,205.5 Z"/></g>
<g><path style="opacity:1" fill="#73b9ce" d="M 492.5,207.5 C 493.833,208.167 493.833,208.167 492.5,207.5 Z"/></g>
<g><path style="opacity:1" fill="#73b9ce" d="M 492.5,208.5 C 491.833,209.167 491.833,209.167 492.5,208.5 Z"/></g>
<g><path style="opacity:1" fill="#73b9ce" d="M 491.5,210.5 C 492.833,211.167 492.833,211.167 491.5,210.5 Z"/></g>
<g><path style="opacity:1" fill="#00b2ea" d="M 503.5,212.5 C 504.833,213.167 504.833,213.167 503.5,212.5 Z"/></g>
<g><path style="opacity:1" fill="#00b2ea" d="M 504.5,215.5 C 505.833,216.167 505.833,216.167 504.5,215.5 Z"/></g>
<g><path style="opacity:1" fill="#00b2ea" d="M 504.5,217.5 C 505.833,218.167 505.833,218.167 504.5,217.5 Z"/></g>
<g><path style="opacity:1" fill="#00b2ea" d="M 504.5,218.5 C 503.833,219.167 503.833,219.167 504.5,218.5 Z"/></g>
<g><path style="opacity:1" fill="#00b2ea" d="M 503.5,219.5 C 502.833,220.167 502.833,220.167 503.5,219.5 Z"/></g>
<g><path style="opacity:1" fill="#00b2ea" d="M 502.5,221.5 C 503.833,222.167 503.833,222.167 502.5,221.5 Z"/></g>
<g><path style="opacity:1" fill="#00b2ea" d="M 502.5,222.5 C 501.833,223.167 501.833,223.167 502.5,222.5 Z"/></g>
<g><path style="opacity:1" fill="#00b2ea" d="M 501.5,224.5 C 502.833,225.167 502.833,225.167 501.5,224.5 Z"/></g>
<g><path style="opacity:1" fill="#00b2ea" d="M 501.5,225.5 C 500.833,226.167 500.833,226.167 501.5,225.5 Z"/></g>
<g><path style="opacity:1" fill="#00b2ea" d="M 500.5,227.5 C 501.833,228.167 501.833,228.167 500.5,227.5 Z"/></g>
<g><path style="opacity:1" fill="#00b2ea" d="M 500.5,228.5 C 499.833,229.167 499.833,229.167 500.5,228.5 Z"/></g>
<g><path style="opacity:1" fill="#00b2ea" d="M 499.5,229.5 C 498.833,230.167 498.833,230.167 499.5,229.5 Z"/></g>
<g><path style="opacity:1" fill="#00b2ea" d="M 498.5,231.5 C 499.833,232.167 499.833,232.167 498.5,231.5 Z"/></g>
<g><path style="opacity:1" fill="#00b2ea" d="M 498.5,232.5 C 497.833,233.167 497.833,233.167 498.5,232.5 Z"/></g>
<g><path style="opacity:1" fill="#00b2ea" d="M 497.5,234.5 C 498.833,235.167 498.833,235.167 497.5,234.5 Z"/></g>
<g><path style="opacity:1" fill="#00b2ea" d="M 497.5,235.5 C 496.833,236.167 496.833,236.167 497.5,235.5 Z"/></g>
<g><path style="opacity:1" fill="#00b2ea" d="M 496.5,236.5 C 495.833,237.167 495.833,237.167 496.5,236.5 Z"/></g>
<g><path style="opacity:1" fill="#00b2ea" d="M 495.5,237.5 C 494.833,238.167 494.833,238.167 495.5,237.5 Z"/></g>
<g><path style="opacity:1" fill="#00b2ea" d="M 494.5,238.5 C 493.833,239.167 493.833,239.167 494.5,238.5 Z"/></g>
<g><path style="opacity:1" fill="#00b2ea" d="M 493.5,240.5 C 494.833,241.167 494.833,241.167 493.5,240.5 Z"/></g>
<g><path style="opacity:1" fill="#00b2ea" d="M 493.5,241.5 C 492.833,242.167 492.833,242.167 493.5,241.5 Z"/></g>
<g><path style="opacity:1" fill="#00b2ea" d="M 492.5,243.5 C 493.833,244.167 493.833,244.167 492.5,243.5 Z"/></g>
<g><path style="opacity:1" fill="#00b2ea" d="M 492.5,245.5 C 493.833,246.167 493.833,246.167 492.5,245.5 Z"/></g>
<g><path style="opacity:1" fill="#00b2ea" d="M 492.5,247.5 C 493.833,248.167 493.833,248.167 492.5,247.5 Z"/></g>
<g><path style="opacity:1" fill="#00b2ea" d="M 492.5,249.5 C 493.833,250.167 493.833,250.167 492.5,249.5 Z"/></g>
<g><path style="opacity:1" fill="#00b2ea" d="M 492.5,251.5 C 493.833,252.167 493.833,252.167 492.5,251.5 Z"/></g>
<g><path style="opacity:1" fill="#00b2ea" d="M 492.5,253.5 C 493.833,254.167 493.833,254.167 492.5,253.5 Z"/></g>
<g><path style="opacity:1" fill="#00b2ea" d="M 492.5,255.5 C 493.833,256.167 493.833,256.167 492.5,255.5 Z"/></g>
<g><path style="opacity:1" fill="#00b2ea" d="M 492.5,257.5 C 493.833,258.167 493.833,258.167 492.5,257.5 Z"/></g>
<g><path style="opacity:1" fill="#00b2ea" d="M 492.5,259.5 C 493.833,260.167 493.833,260.167 492.5,259.5 Z"/></g>
<g><path style="opacity:1" fill="#00b2ea" d="M 492.5,261.5 C 493.833,262.167 493.833,262.167 492.5,261.5 Z"/></g>
<g><path style="opacity:1" fill="#00b2ea" d="M 492.5,263.5 C 493.833,264.167 493.833,264.167 492.5,263.5 Z"/></g>
<g><path style="opacity:1" fill="#00b2ea" d="M 492.5,265.5 C 493.833,266.167 493.833,266.167 492.5,265.5 Z"/></g>
<g><path style="opacity:1" fill="#00b2ea" d="M 492.5,267.5 C 493.833,268.167 493.833,268.167 492.5,267.5 Z"/></g>
<g><path style="opacity:1" fill="#00b2ea" d="M 492.5,269.5 C 493.833,270.167 493.833,270.167 492.5,269.5 Z"/></g>
<g><path style="opacity:1" fill="#00b2ea" d="M 492.5,270.5 C 491.833,271.167 491.833,271.167 492.5,270.5 Z"/></g>
<g><path style="opacity:1" fill="#00b2ea" d="M 491.5,271.5 C 490.833,272.167 490.833,272.167 491.5,271.5 Z"/></g>
<g><path style="opacity:1" fill="#00b2ea" d="M 490.5,273.5 C 491.833,274.167 491.833,274.167 490.5,273.5 Z"/></g>
<g><path style="opacity:1" fill="#00b2ea" d="M 490.5,274.5 C 489.833,275.167 489.833,275.167 490.5,274.5 Z"/></g>
<g><path style="opacity:1" fill="#00b2ea" d="M 489.5,275.5 C 488.833,276.167 488.833,276.167 489.5,275.5 Z"/></g>
<g><path style="opacity:1" fill="#00b2ea" d="M 488.5,276.5 C 487.833,277.167 487.833,277.167 488.5,276.5 Z"/></g>
<g><path style="opacity:1" fill="#00b2ea" d="M 487.5,277.5 C 486.833,278.167 486.833,278.167 487.5,277.5 Z"/></g>
<g><path style="opacity:1" fill="#00b2ea" d="M 486.5,278.5 C 485.833,279.167 485.833,279.167 486.5,278.5 Z"/></g>
<g><path style="opacity:1" fill="#00b2ea" d="M 485.5,280.5 C 486.833,281.167 486.833,281.167 485.5,280.5 Z"/></g>
<g><path style="opacity:1" fill="#00b2ea" d="M 485.5,281.5 C 484.833,282.167 484.833,282.167 485.5,281.5 Z"/></g>
<g><path style="opacity:1" fill="#00b2ea" d="M 484.5,282.5 C 483.833,283.167 483.833,283.167 484.5,282.5 Z"/></g>
<g><path style="opacity:1" fill="#00b2ea" d="M 483.5,283.5 C 482.833,284.167 482.833,284.167 483.5,283.5 Z"/></g>
<g><path style="opacity:1" fill="#00b2ea" d="M 482.5,285.5 C 483.833,286.167 483.833,286.167 482.5,285.5 Z"/></g>
<g><path style="opacity:1" fill="#00b2ea" d="M 482.5,286.5 C 481.833,287.167 481.833,287.167 482.5,286.5 Z"/></g>
<g><path style="opacity:1" fill="#00b2ea" d="M 481.5,287.5 C 480.833,288.167 480.833,288.167 481.5,287.5 Z"/></g>
<g><path style="opacity:1" fill="#00b2ea" d="M 480.5,289.5 C 481.833,290.167 481.833,290.167 480.5,289.5 Z"/></g>
<g><path style="opacity:1" fill="#00b2ea" d="M 480.5,290.5 C 479.833,291.167 479.833,291.167 480.5,290.5 Z"/></g>
<g><path style="opacity:1" fill="#00b2ea" d="M 479.5,291.5 C 478.833,292.167 478.833,292.167 479.5,291.5 Z"/></g>
<g><path style="opacity:1" fill="#00b2ea" d="M 478.5,292.5 C 477.833,293.167 477.833,293.167 478.5,292.5 Z"/></g>
<g><path style="opacity:1" fill="#00b2ea" d="M 477.5,293.5 C 476.833,294.167 476.833,294.167 477.5,293.5 Z"/></g>
<g><path style="opacity:1" fill="#00b2ea" d="M 476.5,294.5 C 475.833,295.167 475.833,295.167 476.5,294.5 Z"/></g>
<g><path style="opacity:1" fill="#00b2ea" d="M 475.5,295.5 C 474.833,296.167 474.833,296.167 475.5,295.5 Z"/></g>
<g><path style="opacity:1" fill="#00b2ea" d="M 474.5,296.5 C 473.833,297.167 473.833,297.167 474.5,296.5 Z"/></g>
<g><path style="opacity:1" fill="#00b2ea" d="M 473.5,297.5 C 472.833,298.167 472.833,298.167 473.5,297.5 Z"/></g>
<g><path style="opacity:1" fill="#00b2ea" d="M 472.5,298.5 C 471.833,299.167 471.833,299.167 472.5,298.5 Z"/></g>
<g><path style="opacity:1" fill="#00b2ea" d="M 471.5,299.5 C 470.833,300.167 470.833,300.167 471.5,299.5 Z"/></g>
<g><path style="opacity:1" fill="#00b2ea" d="M 470.5,300.5 C 469.833,301.167 469.833,301.167 470.5,300.5 Z"/></g>
<g><path style="opacity:1" fill="#00b2ea" d="M 469.5,301.5 C 468.833,302.167 468.833,302.167 469.5,301.5 Z"/></g>
<g><path style="opacity:1" fill="#00b2ea" d="M 375.5,302.5 C 376.833,303.167 376.833,303.167 375.5,302.5 Z"/></g>
<g><path style="opacity:1" fill="#00b2ea" d="M 468.5,302.5 C 467.833,303.167 467.833,303.167 468.5,302.5 Z"/></g>
<g><path style="opacity:1" fill="#00b2ea" d="M 467.5,303.5 C 466.833,304.167 466.833,304.167 467.5,303.5 Z"/></g>
<g><path style="opacity:1" fill="#00b2ea" d="M 466.5,304.5 C 465.833,305.167 465.833,305.167 466.5,304.5 Z"/></g>
<g><path style="opacity:1" fill="#00b2ea" d="M 465.5,305.5 C 464.833,306.167 464.833,306.167 465.5,305.5 Z"/></g>
<g><path style="opacity:1" fill="#00b2ea" d="M 461.5,306.5 C 462.833,307.167 462.833,307.167 461.5,306.5 Z"/></g>
<g><path style="opacity:1" fill="#00b2ea" d="M 464.5,306.5 C 463.833,307.167 463.833,307.167 464.5,306.5 Z"/></g>
<g><path style="opacity:1" fill="#00b2ea" d="M 382.5,307.5 C 383.833,308.167 383.833,308.167 382.5,307.5 Z"/></g>
<g><path style="opacity:1" fill="#00b2ea" d="M 448.5,307.5 C 449.833,308.167 449.833,308.167 448.5,307.5 Z"/></g>
<g><path style="opacity:1" fill="#00b2ea" d="M 450.5,307.5 C 451.833,308.167 451.833,308.167 450.5,307.5 Z"/></g>
<g><path style="opacity:1" fill="#00b2ea" d="M 452.5,307.5 C 453.833,308.167 453.833,308.167 452.5,307.5 Z"/></g>
<g><path style="opacity:1" fill="#00b2ea" d="M 454.5,307.5 C 455.833,308.167 455.833,308.167 454.5,307.5 Z"/></g>
<g><path style="opacity:1" fill="#00b2ea" d="M 456.5,307.5 C 457.833,308.167 457.833,308.167 456.5,307.5 Z"/></g>
<g><path style="opacity:1" fill="#00b2ea" d="M 458.5,307.5 C 459.833,308.167 459.833,308.167 458.5,307.5 Z"/></g>
<g><path style="opacity:1" fill="#00b2ea" d="M 461.5,307.5 C 460.833,308.167 460.833,308.167 461.5,307.5 Z"/></g>
<g><path style="opacity:1" fill="#9db3b9" d="M 448.5,308.5 C 447.833,309.167 447.833,309.167 448.5,308.5 Z"/></g>
<g><path style="opacity:1" fill="#9db3b9" d="M 422.5,309.5 C 423.833,310.167 423.833,310.167 422.5,309.5 Z"/></g>
<g><path style="opacity:1" fill="#9db3b9" d="M 424.5,309.5 C 425.833,310.167 425.833,310.167 424.5,309.5 Z"/></g>
<g><path style="opacity:1" fill="#9db3b9" d="M 426.5,309.5 C 427.833,310.167 427.833,310.167 426.5,309.5 Z"/></g>
<g><path style="opacity:1" fill="#9db3b9" d="M 428.5,309.5 C 429.833,310.167 429.833,310.167 428.5,309.5 Z"/></g>
<g><path style="opacity:1" fill="#9db3b9" d="M 447.5,309.5 C 446.833,310.167 446.833,310.167 447.5,309.5 Z"/></g>
<g><path style="opacity:1" fill="#00b2ea" d="M 387.5,310.5 C 388.833,311.167 388.833,311.167 387.5,310.5 Z"/></g>
<g><path style="opacity:1" fill="#9db3b9" d="M 419.5,310.5 C 420.833,311.167 420.833,311.167 419.5,310.5 Z"/></g>
<g><path style="opacity:1" fill="#9db3b9" d="M 422.5,310.5 C 421.833,311.167 421.833,311.167 422.5,310.5 Z"/></g>
<g><path style="opacity:1" fill="#9db3b9" d="M 446.5,310.5 C 445.833,311.167 445.833,311.167 446.5,310.5 Z"/></g>
<g><path style="opacity:1" fill="#9db3b9" d="M 419.5,311.5 C 418.833,312.167 418.833,312.167 419.5,311.5 Z"/></g>
<g><path style="opacity:1" fill="#9db3b9" d="M 432.5,311.5 C 433.833,312.167 433.833,312.167 432.5,311.5 Z"/></g>
<g><path style="opacity:1" fill="#9db3b9" d="M 445.5,311.5 C 444.833,312.167 444.833,312.167 445.5,311.5 Z"/></g>
<g><path style="opacity:1" fill="#00b2ea" d="M 391.5,312.5 C 392.833,313.167 392.833,313.167 391.5,312.5 Z"/></g>
<g><path style="opacity:1" fill="#00b2ea" d="M 393.5,312.5 C 394.833,313.167 394.833,313.167 393.5,312.5 Z"/></g>
<g><path style="opacity:1" fill="#00b2ea" d="M 395.5,312.5 C 396.833,313.167 396.833,313.167 395.5,312.5 Z"/></g>
<g><path style="opacity:1" fill="#00b2ea" d="M 397.5,312.5 C 398.833,313.167 398.833,313.167 397.5,312.5 Z"/></g>
<g><path style="opacity:1" fill="#00b2ea" d="M 415.5,312.5 C 416.833,313.167 416.833,313.167 415.5,312.5 Z"/></g>
<g><path style="opacity:1" fill="#00b2ea" d="M 418.5,312.5 C 417.833,313.167 417.833,313.167 418.5,312.5 Z"/></g>
<g><path style="opacity:1" fill="#9db3b9" d="M 435.5,312.5 C 436.833,313.167 436.833,313.167 435.5,312.5 Z"/></g>
<g><path style="opacity:1" fill="#9db3b9" d="M 437.5,312.5 C 438.833,313.167 438.833,313.167 437.5,312.5 Z"/></g>
<g><path style="opacity:1" fill="#9db3b9" d="M 439.5,312.5 C 440.833,313.167 440.833,313.167 439.5,312.5 Z"/></g>
<g><path style="opacity:1" fill="#9db3b9" d="M 441.5,312.5 C 442.833,313.167 442.833,313.167 441.5,312.5 Z"/></g>
<g><path style="opacity:1" fill="#9db3b9" d="M 444.5,312.5 C 443.833,313.167 443.833,313.167 444.5,312.5 Z"/></g>
<g><path style="opacity:1" fill="#00b2ea" d="M 400.5,313.5 C 401.833,314.167 401.833,314.167 400.5,313.5 Z"/></g>
<g><path style="opacity:1" fill="#00b2ea" d="M 402.5,313.5 C 403.833,314.167 403.833,314.167 402.5,313.5 Z"/></g>
<g><path style="opacity:1" fill="#00b2ea" d="M 404.5,313.5 C 405.833,314.167 405.833,314.167 404.5,313.5 Z"/></g>
<g><path style="opacity:1" fill="#00b2ea" d="M 406.5,313.5 C 407.833,314.167 407.833,314.167 406.5,313.5 Z"/></g>
<g><path style="opacity:1" fill="#00b2ea" d="M 408.5,313.5 C 409.833,314.167 409.833,314.167 408.5,313.5 Z"/></g>
<g><path style="opacity:1" fill="#00b2ea" d="M 410.5,313.5 C 411.833,314.167 411.833,314.167 410.5,313.5 Z"/></g>
<g><path style="opacity:1" fill="#00b2ea" d="M 412.5,313.5 C 413.833,314.167 413.833,314.167 412.5,313.5 Z"/></g>
<g><path style="opacity:1" fill="#00b2ea" d="M 415.5,313.5 C 414.833,314.167 414.833,314.167 415.5,313.5 Z"/></g>
<g><path style="opacity:0.014" fill="#fdfefd" d="M 280.5,341.5 C 281.251,340.427 282.251,340.26 283.5,341C 282.552,341.483 281.552,341.649 280.5,341.5 Z"/></g>
<g><path style="opacity:0.685" fill="#ababab" d="M 315.5,407.5 C 318.978,407.184 322.312,407.684 325.5,409C 327.016,410.897 327.683,413.064 327.5,415.5C 324.891,415.17 323.224,413.67 322.5,411C 318.525,409.621 315.691,410.787 314,414.5C 313.333,418.833 313.333,423.167 314,427.5C 316.06,431.955 319.227,433.122 323.5,431C 324.435,428.619 324.768,426.119 324.5,423.5C 322.833,423.5 321.167,423.5 319.5,423.5C 319.5,422.5 319.5,421.5 319.5,420.5C 322.167,420.5 324.833,420.5 327.5,420.5C 330.213,432.285 325.88,436.785 314.5,434C 313.667,433.167 312.833,432.333 312,431.5C 310.419,425.277 310.085,418.944 311,412.5C 312.025,410.313 313.525,408.646 315.5,407.5 Z"/></g>
<g><path style="opacity:0.709" fill="#aaaaaa" d="M 334.5,414.5 C 338.007,413.994 341.174,414.66 344,416.5C 344.211,422.218 344.711,427.885 345.5,433.5C 342.37,432.872 339.37,433.538 336.5,435.5C 331.82,433.714 330.32,430.381 332,425.5C 334.642,422.971 337.808,421.971 341.5,422.5C 342.17,419.41 341.003,417.743 338,417.5C 331.595,421.903 330.428,420.903 334.5,414.5 Z M 336.5,425.5 C 338.167,425.5 339.833,425.5 341.5,425.5C 341.849,428.99 340.349,431.323 337,432.5C 333.879,430.326 333.712,427.993 336.5,425.5 Z"/></g>
<g><path style="opacity:0.715" fill="#ababab" d="M 348.5,414.5 C 352.014,414.764 355.681,414.931 359.5,415C 360.5,417 361.5,417 362.5,415C 368.702,412.879 371.868,415.046 372,421.5C 372.499,425.821 372.666,430.154 372.5,434.5C 371.167,434.5 369.833,434.5 368.5,434.5C 368.666,429.156 368.499,423.823 368,418.5C 366.518,416.219 364.851,416.219 363,418.5C 361.729,423.754 361.229,429.087 361.5,434.5C 360.5,434.5 359.5,434.5 358.5,434.5C 358.666,429.156 358.499,423.823 358,418.5C 355.224,416.86 353.224,417.527 352,420.5C 351.501,425.155 351.334,429.821 351.5,434.5C 350.5,434.5 349.5,434.5 348.5,434.5C 348.5,427.833 348.5,421.167 348.5,414.5 Z"/></g>
<g><path style="opacity:0.682" fill="#acacac" d="M 378.5,414.5 C 381.187,414.336 383.854,414.503 386.5,415C 388.613,418.173 389.613,421.673 389.5,425.5C 385.833,425.5 382.167,425.5 378.5,425.5C 377.998,429.171 379.498,431.505 383,432.5C 384.567,431.144 386.4,430.477 388.5,430.5C 388.67,431.822 388.337,432.989 387.5,434C 379.202,436.557 374.869,433.39 374.5,424.5C 374.931,420.744 376.265,417.41 378.5,414.5 Z M 381.5,416.5 C 384.377,417.211 386.043,419.044 386.5,422C 383.854,422.497 381.187,422.664 378.5,422.5C 378.615,420.053 379.615,418.053 381.5,416.5 Z"/></g>
<g><path style="opacity:0.69" fill="#acacac" d="M 402.5,414.5 C 410.753,413.419 414.42,417.086 413.5,425.5C 409.486,425.334 405.486,425.501 401.5,426C 402.09,429.021 403.757,431.188 406.5,432.5C 408.323,431.253 410.323,430.586 412.5,430.5C 409.06,436.582 404.893,436.915 400,431.5C 397.488,425.244 398.322,419.578 402.5,414.5 Z M 405.5,416.5 C 408.804,417.144 410.138,419.144 409.5,422.5C 407.167,422.5 404.833,422.5 402.5,422.5C 402.461,419.911 403.461,417.911 405.5,416.5 Z"/></g>
<g><path style="opacity:0.691" fill="#ababab" d="M 415.5,414.5 C 419.014,414.764 422.681,414.931 426.5,415C 427,415.5 427.5,416 428,416.5C 429.41,422.379 429.91,428.379 429.5,434.5C 428.5,434.5 427.5,434.5 426.5,434.5C 426.666,430.154 426.499,425.821 426,421.5C 424.408,415.219 422.074,414.886 419,420.5C 418.501,425.155 418.334,429.821 418.5,434.5C 417.5,434.5 416.5,434.5 415.5,434.5C 415.5,427.833 415.5,421.167 415.5,414.5 Z"/></g>
<g><path style="opacity:0.707" fill="#ababab" d="M 435.5,414.5 C 439.329,414.927 442.996,414.927 446.5,414.5C 446.666,422.507 446.5,430.507 446,438.5C 444.741,441.217 442.574,442.55 439.5,442.5C 437.275,442.695 435.609,441.861 434.5,440C 434.833,439.5 435.167,439 435.5,438.5C 440.876,440.883 443.376,439.216 443,433.5C 438.767,435.981 435.433,434.981 433,430.5C 431.751,424.718 432.585,419.385 435.5,414.5 Z M 437.5,417.5 C 439.722,417.178 441.556,417.845 443,419.5C 443.667,422.833 443.667,426.167 443,429.5C 440.19,433.615 437.856,433.282 436,428.5C 435.112,424.598 435.612,420.931 437.5,417.5 Z"/></g>
<g><path style="opacity:0.698" fill="#aaaaaa" d="M 450.5,414.5 C 451.5,414.5 452.5,414.5 453.5,414.5C 453.5,421.167 453.5,427.833 453.5,434.5C 452.5,434.5 451.5,434.5 450.5,434.5C 450.5,427.833 450.5,421.167 450.5,414.5 Z"/></g>
<g><path style="opacity:0.683" fill="#adadad" d="M 457.5,414.5 C 459.124,414.36 460.29,415.027 461,416.5C 463.76,414.297 466.76,413.964 470,415.5C 471.37,421.742 471.87,428.075 471.5,434.5C 470.5,434.5 469.5,434.5 468.5,434.5C 468.666,429.821 468.499,425.155 468,420.5C 466.848,416.573 464.848,415.906 462,418.5C 461.501,423.823 461.334,429.156 461.5,434.5C 460.167,434.5 458.833,434.5 457.5,434.5C 457.5,427.833 457.5,421.167 457.5,414.5 Z"/></g>
<g><path style="opacity:0.677" fill="#aaaaaa" d="M 478.5,414.5 C 486.591,413.63 489.924,417.297 488.5,425.5C 484.833,425.5 481.167,425.5 477.5,425.5C 477.998,432.029 480.998,433.695 486.5,430.5C 487.308,430.808 487.975,431.308 488.5,432C 484.469,436.35 480.302,436.517 476,432.5C 474.455,427.953 474.121,423.287 475,418.5C 476.032,416.973 477.199,415.64 478.5,414.5 Z M 481.5,416.5 C 484.044,417.708 485.378,419.708 485.5,422.5C 477.132,423.572 475.799,421.572 481.5,416.5 Z"/></g>
</svg>
